# xmcd
#
# Track frame offsets:
#	182
#	32357
#	46170
#	57420
#	66220
#	91257
#	111070
#	122995
#	142432
#	158995
#	177607
#	190857
#	206582
#
# Disc length: 2909 seconds
# Revision: 2
# Processed by: cddbd v1.5.2PL0 Copyright (c) Steve Scherf et al.
# Submitted via: dBpowerAMP V12.0
#
DISCID=c00b5b0d
DTITLE=Mike Cooper and Ian A. Anderson - The Continuous Preaching Blues
DYEAR=1996
DGENRE=Blues
TTITLE0=Preachin' Blues
TTITLE1=New Lonesome Day
TTITLE2=Everybody's Killing Me
TTITLE3=Oh Baby, We Got A Good Thing Going
TTITLE4=Dark Is The Night
TTITLE5=City Jail Blues
TTITLE6=You Never Can Tell
TTITLE7=Tell Me
TTITLE8=Lone Wolf Blues
TTITLE9=You Got To Move
TTITLE10=Paint It Black
TTITLE11=Hey, Space Pilot
TTITLE12=The Inverted World
EXTD=
EXTT0=
EXTT1=
EXTT2=
EXTT3=
EXTT4=
EXTT5=
EXTT6=
EXTT7=
EXTT8=
EXTT9=
EXTT10=
EXTT11=
EXTT12=
PLAYORDER=
